<svg class="diagram-root" style="background: #f5f6f6" xmlns="http://www.w3.org/2000/svg" xmlns:xlink="http://www.w3.org/1999/xlink"><style>.diagram-root { font-family: "Helvetica Neue", sans-serif; font-size: 12px; } .t { overflow: visible; } .t-bg { y: 40; fill: #fff;   } .th { fill: #005aa0;   } .tht { fill: #fff; font-size: 14px;  } .tf { fill: #323c46; overflow: visible; } .tf.pk { fill: #005aa0; font-weight: bold; } .tf.fk { font-weight: bold; } .ty { fill: #adb1b5; font-weight: normal; text-anchor: end; } .r { fill: transparent; stroke: #c3c3c3; stroke-width: 1; } .l { stroke: 1; } .i { fill: #c2c7ce; stroke: #c2c7ce; } .i.ix { fill: #afb3b6; stroke: #000; } .fa { fill: transparent; overflow: visible; } .fa .bg.hover { fill: #f7f7f7; } .c { cy: 12; r: 4; stroke: #d2d2dc; fill: #d2d2dc; } .hr { fill: transparent; stroke: #323c46; stroke-opacity: 0.035; stroke-width: 13; } .dc { stroke: #fa5a3c; fill: #fa5a3c; } .x { stroke: white; stroke-width: 1; } .hl .th { fill: #1b9bff; } .hl .tht {  } .fhl .bg { fill: #e7f4ff; } .fhls .bg {  } .r.hl { stroke: #1b9bff; } .dim { opacity: 0.25; }</style><g class="drawing-wrapper" transform="translate(-47, -1) scale(1,1)"><g class="rs"><path d="M 270.83 432 m -1, 0 a 1,1 0 1,0 2,0 a 1,1 0 1,0 -2,0 M 270.83 432 m -0.5, 0 a 0.5,0.5 0 1,0 1,0 a 0.5,0.5 0 1,0 -1,0  M270.83 432 L270.83 432 282.83 432 M 270.83 438 m -1, 0 a 1,1 0 1,0 2,0 a 1,1 0 1,0 -2,0 M 270.83 438 m -0.5, 0 a 0.5,0.5 0 1,0 1,0 a 0.5,0.5 0 1,0 -1,0  M270.83 438 L270.83 438 277.83 432 270.83 426 M 270.83 426 m -1, 0 a 1,1 0 1,0 2,0 a 1,1 0 1,0 -2,0 M 270.83 426 m -0.5, 0 a 0.5,0.5 0 1,0 1,0 a 0.5,0.5 0 1,0 -1,0  M282.83 432 Q 334.88 432, 386.92 502.5 T 491 573 M 503 573 m -1, 0 a 1,1 0 1,0 2,0 a 1,1 0 1,0 -2,0 M 503 573 m -0.5, 0 a 0.5,0.5 0 1,0 1,0 a 0.5,0.5 0 1,0 -1,0  M503 573 L503 573 491 573 M497 579 L497 579 497 567" id="h1537058300" class="r"></path><path d="M 80 227 m -1, 0 a 1,1 0 1,0 2,0 a 1,1 0 1,0 -2,0 M 80 227 m -0.5, 0 a 0.5,0.5 0 1,0 1,0 a 0.5,0.5 0 1,0 -1,0  M80 227 L80 227 68 227 M 80 233 m -1, 0 a 1,1 0 1,0 2,0 a 1,1 0 1,0 -2,0 M 80 233 m -0.5, 0 a 0.5,0.5 0 1,0 1,0 a 0.5,0.5 0 1,0 -1,0  M80 233 L80 233 73 227 80 221 M 80 221 m -1, 0 a 1,1 0 1,0 2,0 a 1,1 0 1,0 -2,0 M 80 221 m -0.5, 0 a 0.5,0.5 0 1,0 1,0 a 0.5,0.5 0 1,0 -1,0  M68 227 C 18 227, 17.4 407, 69 407 M 81 407 m -1, 0 a 1,1 0 1,0 2,0 a 1,1 0 1,0 -2,0 M 81 407 m -0.5, 0 a 0.5,0.5 0 1,0 1,0 a 0.5,0.5 0 1,0 -1,0  M81 407 L81 407 69 407 M75 413 L75 413 75 401" id="h1139284389" class="r"></path><path d="M 248.5 252 m -1, 0 a 1,1 0 1,0 2,0 a 1,1 0 1,0 -2,0 M 248.5 252 m -0.5, 0 a 0.5,0.5 0 1,0 1,0 a 0.5,0.5 0 1,0 -1,0  M248.5 252 L248.5 252 260.5 252 M 248.5 258 m -1, 0 a 1,1 0 1,0 2,0 a 1,1 0 1,0 -2,0 M 248.5 258 m -0.5, 0 a 0.5,0.5 0 1,0 1,0 a 0.5,0.5 0 1,0 -1,0  M248.5 258 L248.5 258 255.5 252 248.5 246 M 248.5 246 m -1, 0 a 1,1 0 1,0 2,0 a 1,1 0 1,0 -2,0 M 248.5 246 m -0.5, 0 a 0.5,0.5 0 1,0 1,0 a 0.5,0.5 0 1,0 -1,0  M260.5 252 C 324.9 252, 319.5 88, 269.5 88 M 257.5 88 m -1, 0 a 1,1 0 1,0 2,0 a 1,1 0 1,0 -2,0 M 257.5 88 m -0.5, 0 a 0.5,0.5 0 1,0 1,0 a 0.5,0.5 0 1,0 -1,0  M257.5 88 L257.5 88 269.5 88 M263.5 94 L263.5 94 263.5 82" id="h1607168654" class="r"></path><path d="M 593 126 m -1, 0 a 1,1 0 1,0 2,0 a 1,1 0 1,0 -2,0 M 593 126 m -0.5, 0 a 0.5,0.5 0 1,0 1,0 a 0.5,0.5 0 1,0 -1,0  M593 126 L593 126 581 126 M 593 132 m -1, 0 a 1,1 0 1,0 2,0 a 1,1 0 1,0 -2,0 M 593 132 m -0.5, 0 a 0.5,0.5 0 1,0 1,0 a 0.5,0.5 0 1,0 -1,0  M593 132 L593 132 586 126 593 120 M 593 120 m -1, 0 a 1,1 0 1,0 2,0 a 1,1 0 1,0 -2,0 M 593 120 m -0.5, 0 a 0.5,0.5 0 1,0 1,0 a 0.5,0.5 0 1,0 -1,0  M581 126 Q 503.13 126, 425.25 107 T 269.5 88 M 257.5 88 m -1, 0 a 1,1 0 1,0 2,0 a 1,1 0 1,0 -2,0 M 257.5 88 m -0.5, 0 a 0.5,0.5 0 1,0 1,0 a 0.5,0.5 0 1,0 -1,0  M257.5 88 L257.5 88 269.5 88 M263.5 94 L263.5 94 263.5 82" id="h1153840808" class="r"></path><path d="M 593 151 m -1, 0 a 1,1 0 1,0 2,0 a 1,1 0 1,0 -2,0 M 593 151 m -0.5, 0 a 0.5,0.5 0 1,0 1,0 a 0.5,0.5 0 1,0 -1,0  M593 151 L593 151 581 151 M 593 157 m -1, 0 a 1,1 0 1,0 2,0 a 1,1 0 1,0 -2,0 M 593 157 m -0.5, 0 a 0.5,0.5 0 1,0 1,0 a 0.5,0.5 0 1,0 -1,0  M593 157 L593 157 586 151 593 145 M 593 145 m -1, 0 a 1,1 0 1,0 2,0 a 1,1 0 1,0 -2,0 M 593 145 m -0.5, 0 a 0.5,0.5 0 1,0 1,0 a 0.5,0.5 0 1,0 -1,0  M581 151 Q 506.46 151, 431.92 279 T 282.83 407 M 270.83 407 m -1, 0 a 1,1 0 1,0 2,0 a 1,1 0 1,0 -2,0 M 270.83 407 m -0.5, 0 a 0.5,0.5 0 1,0 1,0 a 0.5,0.5 0 1,0 -1,0  M270.83 407 L270.83 407 282.83 407 M276.83 413 L276.83 413 276.83 401" id="h1938069616" class="r"></path><path d="M 776 392 m -1, 0 a 1,1 0 1,0 2,0 a 1,1 0 1,0 -2,0 M 776 392 m -0.5, 0 a 0.5,0.5 0 1,0 1,0 a 0.5,0.5 0 1,0 -1,0  M776 392 L776 392 764 392 M 776 398 m -1, 0 a 1,1 0 1,0 2,0 a 1,1 0 1,0 -2,0 M 776 398 m -0.5, 0 a 0.5,0.5 0 1,0 1,0 a 0.5,0.5 0 1,0 -1,0  M776 398 L776 398 769 392 776 386 M 776 386 m -1, 0 a 1,1 0 1,0 2,0 a 1,1 0 1,0 -2,0 M 776 386 m -0.5, 0 a 0.5,0.5 0 1,0 1,0 a 0.5,0.5 0 1,0 -1,0  M764 392 Q 643.71 392, 523.42 399.5 T 282.83 407 M 270.83 407 m -1, 0 a 1,1 0 1,0 2,0 a 1,1 0 1,0 -2,0 M 270.83 407 m -0.5, 0 a 0.5,0.5 0 1,0 1,0 a 0.5,0.5 0 1,0 -1,0  M270.83 407 L270.83 407 282.83 407 M276.83 413 L276.83 413 276.83 401" id="h3177548053" class="r"></path></g><g class="hrs"></g><g class="ts"><svg width="168.5" height="100" x="80" y="170" id="h1090417462" class="t"><rect height="40" width="168.5" class="th"></rect><text x="13" y="25" class="tht">dept_emp</text><rect height="60" width="168.5" class="t-bg"></rect><text x="13" y="61" class="tf fk">emp_no<tspan x="155.5" class="ty">INT</tspan></text><text x="13" y="86" class="tf fk">dept_no<tspan x="155.5" class="ty">VARCHAR(10)</tspan></text></svg><svg width="108.7" height="100" x="776" y="335" id="h2472833127" class="t"><rect height="40" width="108.7" class="th"></rect><text x="13" y="25" class="tht">salaries</text><rect height="60" width="108.7" class="t-bg"></rect><text x="13" y="61" class="tf fk">emp_no<tspan x="95.7" class="ty">INT</tspan></text><text x="13" y="86" class="tf">salary<tspan x="95.7" class="ty">INT</tspan></text></svg><svg width="179.81" height="100" x="503" y="516" id="h311790747" class="t"><rect height="40" width="179.81" class="th"></rect><text x="13" y="25" class="tht">titles</text><rect height="60" width="179.81" class="t-bg"></rect><text x="13" y="61" class="tf pk">title_id<tspan x="166.81" class="ty">VARCHAR(20)</tspan></text><path d="M7,14A2,2 0 0,1 5,12A2,2 0 0,1 7,10A2,2 0 0,1 9,12A2,2 0 0,1 7,14M12.65,10C11.83,7.67 9.61,6 7, 6A6, 6 0 0, 0 1, 12A6, 6 0 0, 0 7, 18C9.61, 18 11.83, 16.33 12.65, 14H17V18H21V14H23V10H12.65Z" class="i pk" transform="translate(67.685, 48) scale(0.65)"></path><text x="13" y="86" class="tf">title<tspan x="166.81" class="ty">VARCHAR(20)</tspan></text></svg><svg width="188.5" height="100" x="69" y="31" id="h475896179" class="t"><rect height="40" width="188.5" class="th"></rect><text x="13" y="25" class="tht">departments</text><rect height="60" width="188.5" class="t-bg"></rect><text x="13" y="61" class="tf pk">dept_no<tspan x="175.5" class="ty">VARCHAR(10)</tspan></text><path d="M7,14A2,2 0 0,1 5,12A2,2 0 0,1 7,10A2,2 0 0,1 9,12A2,2 0 0,1 7,14M12.65,10C11.83,7.67 9.61,6 7, 6A6, 6 0 0, 0 1, 12A6, 6 0 0, 0 7, 18C9.61, 18 11.83, 16.33 12.65, 14H17V18H21V14H23V10H12.65Z" class="i pk" transform="translate(76.375, 48) scale(0.65)"></path><text x="13" y="86" class="tf">dept_name<tspan x="175.5" class="ty">VARCHAR(30)</tspan></text></svg><svg width="189.83" height="225" x="81" y="350" id="h1639608377" class="t"><rect height="40" width="189.83" class="th"></rect><text x="13" y="25" class="tht">employees</text><rect height="185" width="189.83" class="t-bg"></rect><text x="13" y="61" class="tf pk">emp_no<tspan x="176.83" class="ty">INT</tspan></text><path d="M7,14A2,2 0 0,1 5,12A2,2 0 0,1 7,10A2,2 0 0,1 9,12A2,2 0 0,1 7,14M12.65,10C11.83,7.67 9.61,6 7, 6A6, 6 0 0, 0 1, 12A6, 6 0 0, 0 7, 18C9.61, 18 11.83, 16.33 12.65, 14H17V18H21V14H23V10H12.65Z" class="i pk" transform="translate(137.499921875, 48) scale(0.65)"></path><text x="13" y="86" class="tf fk">emp_title_id<tspan x="176.83" class="ty">VARCHAR(20)</tspan></text><text x="13" y="111" class="tf">birth_date<tspan x="176.83" class="ty">DATE</tspan></text><text x="13" y="136" class="tf">first_name<tspan x="176.83" class="ty">VARCHAR(20)</tspan></text><text x="13" y="161" class="tf">last_name<tspan x="176.83" class="ty">VARCHAR(20)</tspan></text><text x="13" y="186" class="tf">sex<tspan x="176.83" class="ty">VARCHAR(2)</tspan></text><text x="13" y="211" class="tf">hire_date<tspan x="176.83" class="ty">DATE</tspan></text></svg><svg width="168.5" height="100" x="593" y="69" id="h3142830945" class="t"><rect height="40" width="168.5" class="th"></rect><text x="13" y="25" class="tht">dept_managers</text><rect height="60" width="168.5" class="t-bg"></rect><text x="13" y="61" class="tf fk">dept_no<tspan x="155.5" class="ty">VARCHAR(10)</tspan></text><text x="13" y="86" class="tf fk">emp_no<tspan x="155.5" class="ty">INT</tspan></text></svg></g></g><text class="qdbd-link" x="10" y="20">www.quickdatabasediagrams.com</text></svg>